<?xml version="1.0" encoding="UTF-8" standalone="no"?>
<!DOCTYPE svg PUBLIC "-//W3C//DTD SVG 1.1//EN"
 "http://www.w3.org/Graphics/SVG/1.1/DTD/svg11.dtd">
<!-- Generated by graphviz version 12.2.0 (20241103.1931)
 -->
<!-- Title: Tree Pages: 1 -->
<svg width="880pt" height="658pt"
 viewBox="0.00 0.00 879.75 657.75" xmlns="http://www.w3.org/2000/svg" xmlns:xlink="http://www.w3.org/1999/xlink">
<g id="graph0" class="graph" transform="scale(1 1) rotate(0) translate(4 653.75)">
<title>Tree</title>
<polygon fill="white" stroke="none" points="-4,4 -4,-653.75 875.75,-653.75 875.75,4 -4,4"/>
<!-- 0 -->
<g id="node1" class="node">
<title>0</title>
<path fill="#e994f1" stroke="black" d="M684,-649.75C684,-649.75 531.5,-649.75 531.5,-649.75 525.5,-649.75 519.5,-643.75 519.5,-637.75 519.5,-637.75 519.5,-575 519.5,-575 519.5,-569 525.5,-563 531.5,-563 531.5,-563 684,-563 684,-563 690,-563 696,-569 696,-575 696,-575 696,-637.75 696,-637.75 696,-643.75 690,-649.75 684,-649.75"/>
<text text-anchor="start" x="539.12" y="-632.45" font-family="Helvetica,sans-Serif" font-size="14.00">variety_garnacha ≤ 0.5</text>
<text text-anchor="start" x="572.5" y="-616.7" font-family="Helvetica,sans-Serif" font-size="14.00">gini = 0.563</text>
<text text-anchor="start" x="563.12" y="-600.95" font-family="Helvetica,sans-Serif" font-size="14.00">samples = 570</text>
<text text-anchor="start" x="527.5" y="-585.2" font-family="Helvetica,sans-Serif" font-size="14.00">value = [128, 155, 60, 557]</text>
<text text-anchor="start" x="575.12" y="-569.45" font-family="Helvetica,sans-Serif" font-size="14.00">class = US</text>
</g>
<!-- 1 -->
<g id="node2" class="node">
<title>1</title>
<path fill="#e994f1" stroke="black" d="M611.62,-527C611.62,-527 411.88,-527 411.88,-527 405.88,-527 399.88,-521 399.88,-515 399.88,-515 399.88,-452.25 399.88,-452.25 399.88,-446.25 405.88,-440.25 411.88,-440.25 411.88,-440.25 611.62,-440.25 611.62,-440.25 617.62,-440.25 623.62,-446.25 623.62,-452.25 623.62,-452.25 623.62,-515 623.62,-515 623.62,-521 617.62,-527 611.62,-527"/>
<text text-anchor="start" x="407.88" y="-509.7" font-family="Helvetica,sans-Serif" font-size="14.00">variety_rhne&#45;style_red_blend ≤ 0.5</text>
<text text-anchor="start" x="476.5" y="-493.95" font-family="Helvetica,sans-Serif" font-size="14.00">gini = 0.559</text>
<text text-anchor="start" x="467.12" y="-478.2" font-family="Helvetica,sans-Serif" font-size="14.00">samples = 568</text>
<text text-anchor="start" x="431.5" y="-462.45" font-family="Helvetica,sans-Serif" font-size="14.00">value = [128, 155, 56, 557]</text>
<text text-anchor="start" x="479.12" y="-446.7" font-family="Helvetica,sans-Serif" font-size="14.00">class = US</text>
</g>
<!-- 0&#45;&gt;1 -->
<g id="edge1" class="edge">
<title>0&#45;&gt;1</title>
<path fill="none" stroke="black" d="M573.9,-562.8C567.02,-554.15 559.71,-544.95 552.62,-536.03"/>
<polygon fill="black" stroke="black" points="555.52,-534.05 546.56,-528.4 550.04,-538.41 555.52,-534.05"/>
<text text-anchor="middle" x="542.78" y="-546.63" font-family="Helvetica,sans-Serif" font-size="14.00">True</text>
</g>
<!-- 38 -->
<g id="node15" class="node">
<title>38</title>
<path fill="#399de5" stroke="black" d="M753.75,-519.12C753.75,-519.12 653.75,-519.12 653.75,-519.12 647.75,-519.12 641.75,-513.12 641.75,-507.12 641.75,-507.12 641.75,-460.12 641.75,-460.12 641.75,-454.12 647.75,-448.12 653.75,-448.12 653.75,-448.12 753.75,-448.12 753.75,-448.12 759.75,-448.12 765.75,-454.12 765.75,-460.12 765.75,-460.12 765.75,-507.12 765.75,-507.12 765.75,-513.12 759.75,-519.12 753.75,-519.12"/>
<text text-anchor="start" x="676" y="-501.82" font-family="Helvetica,sans-Serif" font-size="14.00">gini = 0.0</text>
<text text-anchor="start" x="666.62" y="-486.07" font-family="Helvetica,sans-Serif" font-size="14.00">samples = 2</text>
<text text-anchor="start" x="649.75" y="-470.32" font-family="Helvetica,sans-Serif" font-size="14.00">value = [0, 0, 4, 0]</text>
<text text-anchor="start" x="663.25" y="-454.57" font-family="Helvetica,sans-Serif" font-size="14.00">class = Spain</text>
</g>
<!-- 0&#45;&gt;38 -->
<g id="edge14" class="edge">
<title>0&#45;&gt;38</title>
<path fill="none" stroke="black" d="M641.6,-562.8C650.54,-551.55 660.21,-539.39 669.19,-528.1"/>
<polygon fill="black" stroke="black" points="671.79,-530.44 675.28,-520.44 666.31,-526.09 671.79,-530.44"/>
<text text-anchor="middle" x="679.06" y="-538.67" font-family="Helvetica,sans-Serif" font-size="14.00">False</text>
</g>
<!-- 2 -->
<g id="node3" class="node">
<title>2</title>
<path fill="#e994f1" stroke="black" d="M515.5,-404.25C515.5,-404.25 318,-404.25 318,-404.25 312,-404.25 306,-398.25 306,-392.25 306,-392.25 306,-329.5 306,-329.5 306,-323.5 312,-317.5 318,-317.5 318,-317.5 515.5,-317.5 515.5,-317.5 521.5,-317.5 527.5,-323.5 527.5,-329.5 527.5,-329.5 527.5,-392.25 527.5,-392.25 527.5,-398.25 521.5,-404.25 515.5,-404.25"/>
<text text-anchor="start" x="350.75" y="-386.95" font-family="Helvetica,sans-Serif" font-size="14.00">variety_nebbiolo ≤ 0.5</text>
<text text-anchor="start" x="381.5" y="-371.2" font-family="Helvetica,sans-Serif" font-size="14.00">gini = 0.558</text>
<text text-anchor="start" x="372.12" y="-355.45" font-family="Helvetica,sans-Serif" font-size="14.00">samples = 556</text>
<text text-anchor="start" x="314" y="-339.7" font-family="Helvetica,sans-Serif" font-size="14.00">value = [120.0, 155.0, 56.0, 548.0]</text>
<text text-anchor="start" x="384.12" y="-323.95" font-family="Helvetica,sans-Serif" font-size="14.00">class = US</text>
</g>
<!-- 1&#45;&gt;2 -->
<g id="edge2" class="edge">
<title>1&#45;&gt;2</title>
<path fill="none" stroke="black" d="M478.26,-440.05C471.45,-431.4 464.21,-422.2 457.19,-413.28"/>
<polygon fill="black" stroke="black" points="460.13,-411.35 451.2,-405.66 454.63,-415.68 460.13,-411.35"/>
</g>
<!-- 33 -->
<g id="node10" class="node">
<title>33</title>
<path fill="#fbe9fc" stroke="black" d="M657.75,-404.25C657.75,-404.25 557.75,-404.25 557.75,-404.25 551.75,-404.25 545.75,-398.25 545.75,-392.25 545.75,-392.25 545.75,-329.5 545.75,-329.5 545.75,-323.5 551.75,-317.5 557.75,-317.5 557.75,-317.5 657.75,-317.5 657.75,-317.5 663.75,-317.5 669.75,-323.5 669.75,-329.5 669.75,-329.5 669.75,-392.25 669.75,-392.25 669.75,-398.25 663.75,-404.25 657.75,-404.25"/>
<text text-anchor="start" x="572.5" y="-386.95" font-family="Helvetica,sans-Serif" font-size="14.00">price ≤ 25.0</text>
<text text-anchor="start" x="572.5" y="-371.2" font-family="Helvetica,sans-Serif" font-size="14.00">gini = 0.498</text>
<text text-anchor="start" x="566.88" y="-355.45" font-family="Helvetica,sans-Serif" font-size="14.00">samples = 12</text>
<text text-anchor="start" x="553.75" y="-339.7" font-family="Helvetica,sans-Serif" font-size="14.00">value = [8, 0, 0, 9]</text>
<text text-anchor="start" x="575.12" y="-323.95" font-family="Helvetica,sans-Serif" font-size="14.00">class = US</text>
</g>
<!-- 1&#45;&gt;33 -->
<g id="edge9" class="edge">
<title>1&#45;&gt;33</title>
<path fill="none" stroke="black" d="M545.6,-440.05C552.48,-431.4 559.79,-422.2 566.88,-413.28"/>
<polygon fill="black" stroke="black" points="569.46,-415.66 572.94,-405.65 563.98,-411.3 569.46,-415.66"/>
</g>
<!-- 3 -->
<g id="node4" class="node">
<title>3</title>
<path fill="#e88ef0" stroke="black" d="M332.75,-281.5C332.75,-281.5 82.75,-281.5 82.75,-281.5 76.75,-281.5 70.75,-275.5 70.75,-269.5 70.75,-269.5 70.75,-206.75 70.75,-206.75 70.75,-200.75 76.75,-194.75 82.75,-194.75 82.75,-194.75 332.75,-194.75 332.75,-194.75 338.75,-194.75 344.75,-200.75 344.75,-206.75 344.75,-206.75 344.75,-269.5 344.75,-269.5 344.75,-275.5 338.75,-281.5 332.75,-281.5"/>
<text text-anchor="start" x="78.75" y="-264.2" font-family="Helvetica,sans-Serif" font-size="14.00">variety_corvina,_rondinella,_molinara ≤ 0.5</text>
<text text-anchor="start" x="172.5" y="-248.45" font-family="Helvetica,sans-Serif" font-size="14.00">gini = 0.545</text>
<text text-anchor="start" x="163.12" y="-232.7" font-family="Helvetica,sans-Serif" font-size="14.00">samples = 542</text>
<text text-anchor="start" x="105" y="-216.95" font-family="Helvetica,sans-Serif" font-size="14.00">value = [120.0, 135.0, 56.0, 548.0]</text>
<text text-anchor="start" x="175.12" y="-201.2" font-family="Helvetica,sans-Serif" font-size="14.00">class = US</text>
</g>
<!-- 2&#45;&gt;3 -->
<g id="edge3" class="edge">
<title>2&#45;&gt;3</title>
<path fill="none" stroke="black" d="M342.77,-317.13C326.18,-307.55 308.47,-297.31 291.51,-287.52"/>
<polygon fill="black" stroke="black" points="293.35,-284.54 282.94,-282.57 289.85,-290.6 293.35,-284.54"/>
</g>
<!-- 32 -->
<g id="node9" class="node">
<title>32</title>
<path fill="#47e539" stroke="black" d="M482.5,-273.62C482.5,-273.62 375,-273.62 375,-273.62 369,-273.62 363,-267.62 363,-261.62 363,-261.62 363,-214.62 363,-214.62 363,-208.62 369,-202.62 375,-202.62 375,-202.62 482.5,-202.62 482.5,-202.62 488.5,-202.62 494.5,-208.62 494.5,-214.62 494.5,-214.62 494.5,-261.62 494.5,-261.62 494.5,-267.62 488.5,-273.62 482.5,-273.62"/>
<text text-anchor="start" x="401" y="-256.32" font-family="Helvetica,sans-Serif" font-size="14.00">gini = 0.0</text>
<text text-anchor="start" x="387.88" y="-240.57" font-family="Helvetica,sans-Serif" font-size="14.00">samples = 14</text>
<text text-anchor="start" x="371" y="-224.82" font-family="Helvetica,sans-Serif" font-size="14.00">value = [0, 20, 0, 0]</text>
<text text-anchor="start" x="393.12" y="-209.07" font-family="Helvetica,sans-Serif" font-size="14.00">class = Italy</text>
</g>
<!-- 2&#45;&gt;32 -->
<g id="edge8" class="edge">
<title>2&#45;&gt;32</title>
<path fill="none" stroke="black" d="M420.98,-317.3C422.02,-306.83 423.14,-295.58 424.2,-284.96"/>
<polygon fill="black" stroke="black" points="427.65,-285.56 425.16,-275.26 420.69,-284.86 427.65,-285.56"/>
</g>
<!-- 4 -->
<g id="node5" class="node">
<title>4</title>
<path fill="#e88bf0" stroke="black" d="M209.5,-158.75C209.5,-158.75 12,-158.75 12,-158.75 6,-158.75 0,-152.75 0,-146.75 0,-146.75 0,-84 0,-84 0,-78 6,-72 12,-72 12,-72 209.5,-72 209.5,-72 215.5,-72 221.5,-78 221.5,-84 221.5,-84 221.5,-146.75 221.5,-146.75 221.5,-152.75 215.5,-158.75 209.5,-158.75"/>
<text text-anchor="start" x="53.75" y="-141.45" font-family="Helvetica,sans-Serif" font-size="14.00">variety_syrah ≤ 0.5</text>
<text text-anchor="start" x="75.5" y="-125.7" font-family="Helvetica,sans-Serif" font-size="14.00">gini = 0.536</text>
<text text-anchor="start" x="66.12" y="-109.95" font-family="Helvetica,sans-Serif" font-size="14.00">samples = 534</text>
<text text-anchor="start" x="8" y="-94.2" font-family="Helvetica,sans-Serif" font-size="14.00">value = [120.0, 123.0, 56.0, 548.0]</text>
<text text-anchor="start" x="78.12" y="-78.45" font-family="Helvetica,sans-Serif" font-size="14.00">class = US</text>
</g>
<!-- 3&#45;&gt;4 -->
<g id="edge4" class="edge">
<title>3&#45;&gt;4</title>
<path fill="none" stroke="black" d="M173.55,-194.55C166.6,-185.9 159.21,-176.7 152.04,-167.78"/>
<polygon fill="black" stroke="black" points="154.91,-165.75 145.91,-160.15 149.45,-170.14 154.91,-165.75"/>
</g>
<!-- 31 -->
<g id="node8" class="node">
<title>31</title>
<path fill="#47e539" stroke="black" d="M359.5,-150.88C359.5,-150.88 252,-150.88 252,-150.88 246,-150.88 240,-144.88 240,-138.88 240,-138.88 240,-91.88 240,-91.88 240,-85.88 246,-79.88 252,-79.88 252,-79.88 359.5,-79.88 359.5,-79.88 365.5,-79.88 371.5,-85.88 371.5,-91.88 371.5,-91.88 371.5,-138.88 371.5,-138.88 371.5,-144.88 365.5,-150.88 359.5,-150.88"/>
<text text-anchor="start" x="278" y="-133.57" font-family="Helvetica,sans-Serif" font-size="14.00">gini = 0.0</text>
<text text-anchor="start" x="268.62" y="-117.83" font-family="Helvetica,sans-Serif" font-size="14.00">samples = 8</text>
<text text-anchor="start" x="248" y="-102.08" font-family="Helvetica,sans-Serif" font-size="14.00">value = [0, 12, 0, 0]</text>
<text text-anchor="start" x="270.12" y="-86.33" font-family="Helvetica,sans-Serif" font-size="14.00">class = Italy</text>
</g>
<!-- 3&#45;&gt;31 -->
<g id="edge7" class="edge">
<title>3&#45;&gt;31</title>
<path fill="none" stroke="black" d="M242.3,-194.55C251.43,-183.3 261.3,-171.14 270.47,-159.85"/>
<polygon fill="black" stroke="black" points="273.11,-162.15 276.69,-152.18 267.67,-157.74 273.11,-162.15"/>
</g>
<!-- 5 -->
<g id="node6" class="node">
<title>5</title>
<path fill="#c0c0c0" stroke="black" d="M89.75,-36C89.75,-36 59.75,-36 59.75,-36 53.75,-36 47.75,-30 47.75,-24 47.75,-24 47.75,-12 47.75,-12 47.75,-6 53.75,0 59.75,0 59.75,0 89.75,0 89.75,0 95.75,0 101.75,-6 101.75,-12 101.75,-12 101.75,-24 101.75,-24 101.75,-30 95.75,-36 89.75,-36"/>
<text text-anchor="middle" x="74.75" y="-12.57" font-family="Helvetica,sans-Serif" font-size="14.00">(...)</text>
</g>
<!-- 4&#45;&gt;5 -->
<g id="edge5" class="edge">
<title>4&#45;&gt;5</title>
<path fill="none" stroke="black" d="M94.65,-71.71C91.48,-63.31 88.23,-54.7 85.3,-46.94"/>
<polygon fill="black" stroke="black" points="88.62,-45.84 81.82,-37.72 82.07,-48.31 88.62,-45.84"/>
</g>
<!-- 22 -->
<g id="node7" class="node">
<title>22</title>
<path fill="#c0c0c0" stroke="black" d="M161.75,-36C161.75,-36 131.75,-36 131.75,-36 125.75,-36 119.75,-30 119.75,-24 119.75,-24 119.75,-12 119.75,-12 119.75,-6 125.75,0 131.75,0 131.75,0 161.75,0 161.75,0 167.75,0 173.75,-6 173.75,-12 173.75,-12 173.75,-24 173.75,-24 173.75,-30 167.75,-36 161.75,-36"/>
<text text-anchor="middle" x="146.75" y="-12.57" font-family="Helvetica,sans-Serif" font-size="14.00">(...)</text>
</g>
<!-- 4&#45;&gt;22 -->
<g id="edge6" class="edge">
<title>4&#45;&gt;22</title>
<path fill="none" stroke="black" d="M126.85,-71.71C130.02,-63.31 133.27,-54.7 136.2,-46.94"/>
<polygon fill="black" stroke="black" points="139.43,-48.31 139.68,-37.72 132.88,-45.84 139.43,-48.31"/>
</g>
<!-- 34 -->
<g id="node11" class="node">
<title>34</title>
<path fill="#e58139" stroke="black" d="M646.75,-273.62C646.75,-273.62 546.75,-273.62 546.75,-273.62 540.75,-273.62 534.75,-267.62 534.75,-261.62 534.75,-261.62 534.75,-214.62 534.75,-214.62 534.75,-208.62 540.75,-202.62 546.75,-202.62 546.75,-202.62 646.75,-202.62 646.75,-202.62 652.75,-202.62 658.75,-208.62 658.75,-214.62 658.75,-214.62 658.75,-261.62 658.75,-261.62 658.75,-267.62 652.75,-273.62 646.75,-273.62"/>
<text text-anchor="start" x="569" y="-256.32" font-family="Helvetica,sans-Serif" font-size="14.00">gini = 0.0</text>
<text text-anchor="start" x="559.62" y="-240.57" font-family="Helvetica,sans-Serif" font-size="14.00">samples = 6</text>
<text text-anchor="start" x="542.75" y="-224.82" font-family="Helvetica,sans-Serif" font-size="14.00">value = [7, 0, 0, 0]</text>
<text text-anchor="start" x="552.5" y="-209.07" font-family="Helvetica,sans-Serif" font-size="14.00">class = France</text>
</g>
<!-- 33&#45;&gt;34 -->
<g id="edge10" class="edge">
<title>33&#45;&gt;34</title>
<path fill="none" stroke="black" d="M603.87,-317.3C602.92,-306.83 601.89,-295.58 600.93,-284.96"/>
<polygon fill="black" stroke="black" points="604.43,-284.9 600.04,-275.26 597.46,-285.54 604.43,-284.9"/>
</g>
<!-- 35 -->
<g id="node12" class="node">
<title>35</title>
<path fill="#db4fe8" stroke="black" d="M788.75,-281.5C788.75,-281.5 688.75,-281.5 688.75,-281.5 682.75,-281.5 676.75,-275.5 676.75,-269.5 676.75,-269.5 676.75,-206.75 676.75,-206.75 676.75,-200.75 682.75,-194.75 688.75,-194.75 688.75,-194.75 788.75,-194.75 788.75,-194.75 794.75,-194.75 800.75,-200.75 800.75,-206.75 800.75,-206.75 800.75,-269.5 800.75,-269.5 800.75,-275.5 794.75,-281.5 788.75,-281.5"/>
<text text-anchor="start" x="700.12" y="-264.2" font-family="Helvetica,sans-Serif" font-size="14.00">points ≤ 91.5</text>
<text text-anchor="start" x="707.25" y="-248.45" font-family="Helvetica,sans-Serif" font-size="14.00">gini = 0.18</text>
<text text-anchor="start" x="701.62" y="-232.7" font-family="Helvetica,sans-Serif" font-size="14.00">samples = 6</text>
<text text-anchor="start" x="684.75" y="-216.95" font-family="Helvetica,sans-Serif" font-size="14.00">value = [1, 0, 0, 9]</text>
<text text-anchor="start" x="706.12" y="-201.2" font-family="Helvetica,sans-Serif" font-size="14.00">class = US</text>
</g>
<!-- 33&#45;&gt;35 -->
<g id="edge11" class="edge">
<title>33&#45;&gt;35</title>
<path fill="none" stroke="black" d="M653.94,-317.3C663.72,-308.29 674.13,-298.69 684.19,-289.41"/>
<polygon fill="black" stroke="black" points="686.45,-292.1 691.43,-282.75 681.7,-286.95 686.45,-292.1"/>
</g>
<!-- 36 -->
<g id="node13" class="node">
<title>36</title>
<path fill="#d739e5" stroke="black" d="M717.75,-150.88C717.75,-150.88 617.75,-150.88 617.75,-150.88 611.75,-150.88 605.75,-144.88 605.75,-138.88 605.75,-138.88 605.75,-91.88 605.75,-91.88 605.75,-85.88 611.75,-79.88 617.75,-79.88 617.75,-79.88 717.75,-79.88 717.75,-79.88 723.75,-79.88 729.75,-85.88 729.75,-91.88 729.75,-91.88 729.75,-138.88 729.75,-138.88 729.75,-144.88 723.75,-150.88 717.75,-150.88"/>
<text text-anchor="start" x="640" y="-133.57" font-family="Helvetica,sans-Serif" font-size="14.00">gini = 0.0</text>
<text text-anchor="start" x="630.62" y="-117.83" font-family="Helvetica,sans-Serif" font-size="14.00">samples = 5</text>
<text text-anchor="start" x="613.75" y="-102.08" font-family="Helvetica,sans-Serif" font-size="14.00">value = [0, 0, 0, 9]</text>
<text text-anchor="start" x="635.12" y="-86.33" font-family="Helvetica,sans-Serif" font-size="14.00">class = US</text>
</g>
<!-- 35&#45;&gt;36 -->
<g id="edge12" class="edge">
<title>35&#45;&gt;36</title>
<path fill="none" stroke="black" d="M713.72,-194.55C707.3,-183.64 700.38,-171.87 693.9,-160.86"/>
<polygon fill="black" stroke="black" points="696.96,-159.15 688.88,-152.31 690.93,-162.7 696.96,-159.15"/>
</g>
<!-- 37 -->
<g id="node14" class="node">
<title>37</title>
<path fill="#e58139" stroke="black" d="M859.75,-150.88C859.75,-150.88 759.75,-150.88 759.75,-150.88 753.75,-150.88 747.75,-144.88 747.75,-138.88 747.75,-138.88 747.75,-91.88 747.75,-91.88 747.75,-85.88 753.75,-79.88 759.75,-79.88 759.75,-79.88 859.75,-79.88 859.75,-79.88 865.75,-79.88 871.75,-85.88 871.75,-91.88 871.75,-91.88 871.75,-138.88 871.75,-138.88 871.75,-144.88 865.75,-150.88 859.75,-150.88"/>
<text text-anchor="start" x="782" y="-133.57" font-family="Helvetica,sans-Serif" font-size="14.00">gini = 0.0</text>
<text text-anchor="start" x="772.62" y="-117.83" font-family="Helvetica,sans-Serif" font-size="14.00">samples = 1</text>
<text text-anchor="start" x="755.75" y="-102.08" font-family="Helvetica,sans-Serif" font-size="14.00">value = [1, 0, 0, 0]</text>
<text text-anchor="start" x="765.5" y="-86.33" font-family="Helvetica,sans-Serif" font-size="14.00">class = France</text>
</g>
<!-- 35&#45;&gt;37 -->
<g id="edge13" class="edge">
<title>35&#45;&gt;37</title>
<path fill="none" stroke="black" d="M763.78,-194.55C770.2,-183.64 777.12,-171.87 783.6,-160.86"/>
<polygon fill="black" stroke="black" points="786.57,-162.7 788.62,-152.31 780.54,-159.15 786.57,-162.7"/>
</g>
</g>
</svg>
